<?xml version="1.0" encoding="iso-8859-1"?>
<!-- Generator: Adobe Illustrator 19.0.0, SVG Export Plug-In . SVG Version: 6.00 Build 0)  -->
<svg version="1.1" id="Capa_1" xmlns="http://www.w3.org/2000/svg" xmlns:xlink="http://www.w3.org/1999/xlink" x="0px" y="0px"
	 viewBox="0 0 512 512" style="enable-background:new 0 0 512 512;" xml:space="preserve">
<path style="fill:#482F21;" d="M255.998,126.4c8.284,0,15-6.716,15-15V15c0-8.284-6.716-15-15-15s-15,6.716-15,15v96.4
	C240.998,119.685,247.714,126.4,255.998,126.4z"/>
<path style="fill:#843D2D;" d="M255.998,512c8.284,0,15-6.716,15-15v-96.399c0-8.284-6.716-15-15-15s-15,6.716-15,15V497
	C240.998,505.284,247.714,512,255.998,512z"/>
<path style="fill:#B37150;" d="M328.285,145.775c5.184,0,10.225-2.69,13.004-7.503l48.199-83.485
	c4.143-7.175,1.684-16.349-5.49-20.49c-7.174-4.144-16.348-1.686-20.49,5.49l-48.199,83.485c-4.143,7.175-1.684,16.349,5.49,20.49
	C323.161,145.127,325.74,145.775,328.285,145.775z"/>
<path style="fill:#663E2C;" d="M135.484,479.715c5.184,0,10.226-2.69,13.004-7.503l48.199-83.483
	c4.143-7.175,1.685-16.349-5.49-20.49c-7.174-4.143-16.348-1.685-20.49,5.49l-48.199,83.483c-4.143,7.175-1.685,16.349,5.49,20.49
	C130.36,479.066,132.939,479.715,135.484,479.715z"/>
<path style="fill:#B37150;" d="M381.238,198.705c2.545,0,5.124-0.648,7.486-2.013l83.486-48.202
	c7.175-4.143,9.633-13.316,5.49-20.49c-4.143-7.175-13.315-9.634-20.49-5.49l-83.486,48.202c-7.175,4.143-9.633,13.316-5.49,20.49
	C371.013,196.015,376.055,198.705,381.238,198.705z"/>
<path style="fill:#663E2C;" d="M47.301,391.503c2.545,0,5.124-0.648,7.486-2.013l83.484-48.198c7.174-4.142,9.633-13.315,5.49-20.49
	c-4.143-7.175-13.315-9.635-20.49-5.49L39.787,363.51c-7.174,4.142-9.633,13.315-5.49,20.49
	C37.075,388.811,42.117,391.503,47.301,391.503z"/>
<path style="fill:#B37150;" d="M400.598,271.002H497c8.284,0,15-6.716,15-15s-6.716-15-15-15h-96.402c-8.284,0-15,6.716-15,15
	S392.313,271.002,400.598,271.002z"/>
<path style="fill:#663E2C;" d="M15,271.002h96.398c8.284,0,15-6.716,15-15s-6.716-15-15-15H15c-8.284,0-15,6.716-15,15
	S6.716,271.002,15,271.002z"/>
<path style="fill:#843D2D;" d="M464.697,391.505c5.184,0,10.226-2.69,13.004-7.503c4.143-7.175,1.685-16.349-5.49-20.49
	l-83.486-48.2c-7.173-4.143-16.349-1.684-20.49,5.49c-4.143,7.175-1.685,16.349,5.49,20.49l83.486,48.2
	C459.573,390.856,462.152,391.505,464.697,391.505z"/>
<path style="fill:#482F21;" d="M130.758,198.705c5.184,0,10.226-2.691,13.004-7.503c4.143-7.175,1.685-16.349-5.49-20.49
	l-83.484-48.2c-7.174-4.145-16.348-1.684-20.49,5.49c-4.143,7.174-1.685,16.349,5.49,20.49l83.484,48.2
	C125.634,198.057,128.213,198.705,130.758,198.705z"/>
<path style="fill:#843D2D;" d="M376.512,479.718c2.545,0,5.124-0.648,7.486-2.013c7.174-4.142,9.633-13.316,5.49-20.49
	l-48.199-83.485c-4.142-7.174-13.316-9.635-20.49-5.49c-7.174,4.142-9.633,13.315-5.49,20.49l48.199,83.485
	C366.286,477.026,371.328,479.718,376.512,479.718z"/>
<path style="fill:#482F21;" d="M183.711,145.775c2.545,0,5.124-0.648,7.486-2.013c7.175-4.143,9.633-13.316,5.49-20.49
	L148.488,39.79c-4.142-7.176-13.315-9.635-20.49-5.49c-7.175,4.143-9.633,13.316-5.49,20.49l48.199,83.483
	C173.485,143.085,178.527,145.775,183.711,145.775z"/>
<g>
</g>
<g>
</g>
<g>
</g>
<g>
</g>
<g>
</g>
<g>
</g>
<g>
</g>
<g>
</g>
<g>
</g>
<g>
</g>
<g>
</g>
<g>
</g>
<g>
</g>
<g>
</g>
<g>
</g>
</svg>
